<svg width="32" height="32" viewBox="0 0 32 32" fill="none" xmlns="http://www.w3.org/2000/svg">
<path d="M27.3438 24.1625L19.1813 16L27.3438 7.83755C28.225 6.9563 28.225 5.53755 27.3438 4.6563C26.4625 3.77505 25.0438 3.77505 24.1625 4.6563L16 12.8188L7.8375 4.6563C6.95625 3.77505 5.5375 3.77505 4.65625 4.6563C3.775 5.53755 3.775 6.9563 4.65625 7.83755L12.8188 16L4.65625 24.1625C3.775 25.0438 3.775 26.4625 4.65625 27.3438C5.5375 28.225 6.95625 28.225 7.8375 27.3438L16 19.1813L24.1625 27.3438C25.0438 28.225 26.4625 28.225 27.3438 27.3438C28.2188 26.4625 28.2188 25.0375 27.3438 24.1625Z" fill="black"/>
</svg>
